<svg width="131" height="43" viewBox="0 0 131 43" fill="none" xmlns="http://www.w3.org/2000/svg">
<path d="M1.42432 0.5H129C129.828 0.5 130.5 1.17157 130.5 2V41C130.5 41.8284 129.828 42.5 129 42.5H1.42432V0.5Z" stroke="#D1D1E4"/>
<path d="M30.9937 26.13C30.361 26.13 29.802 26.0433 29.3167 25.87C28.8314 25.688 28.3677 25.3977 27.9257 24.999C27.7437 24.843 27.6527 24.6653 27.6527 24.466C27.6527 24.31 27.7134 24.1713 27.8347 24.05C27.956 23.92 28.099 23.855 28.2637 23.855C28.411 23.855 28.5367 23.9027 28.6407 23.998C28.9874 24.3187 29.3427 24.557 29.7067 24.713C30.0794 24.8603 30.4997 24.934 30.9677 24.934C31.5137 24.934 31.973 24.8083 32.3457 24.557C32.727 24.3057 32.9177 23.9893 32.9177 23.608C32.909 23.1573 32.7184 22.8107 32.3457 22.568C31.9817 22.3167 31.4227 22.1087 30.6687 21.944C29.776 21.762 29.087 21.463 28.6017 21.047C28.125 20.631 27.8867 20.0547 27.8867 19.318C27.8867 18.8067 28.021 18.3603 28.2897 17.979C28.5584 17.589 28.931 17.29 29.4077 17.082C29.8844 16.874 30.4217 16.77 31.0197 16.77C31.557 16.77 32.064 16.8567 32.5407 17.03C33.0174 17.2033 33.403 17.433 33.6977 17.719C33.897 17.8923 33.9967 18.0787 33.9967 18.278C33.9967 18.434 33.936 18.5727 33.8147 18.694C33.702 18.8153 33.5634 18.876 33.3987 18.876C33.2774 18.876 33.1777 18.8413 33.0997 18.772C32.8744 18.5467 32.5624 18.356 32.1637 18.2C31.765 18.044 31.3837 17.966 31.0197 17.966C30.439 17.966 29.9754 18.0873 29.6287 18.33C29.2907 18.564 29.1217 18.876 29.1217 19.266C29.1217 19.6907 29.2907 20.0157 29.6287 20.241C29.9754 20.4663 30.4867 20.657 31.1627 20.813C31.8387 20.9603 32.389 21.1337 32.8137 21.333C33.247 21.5323 33.5807 21.8097 33.8147 22.165C34.0487 22.5203 34.1657 22.984 34.1657 23.556C34.1657 24.0587 34.0227 24.505 33.7367 24.895C33.4594 25.285 33.078 25.5883 32.5927 25.805C32.1074 26.0217 31.5744 26.13 30.9937 26.13ZM41.6281 22.334C41.6194 22.49 41.5544 22.6243 41.4331 22.737C41.3118 22.841 41.1688 22.893 41.0041 22.893H36.4281C36.4888 23.5257 36.7271 24.0327 37.1431 24.414C37.5678 24.7953 38.0834 24.986 38.6901 24.986C39.1061 24.986 39.4441 24.9253 39.7041 24.804C39.9641 24.6827 40.1938 24.5267 40.3931 24.336C40.5231 24.258 40.6488 24.219 40.7701 24.219C40.9174 24.219 41.0388 24.271 41.1341 24.375C41.2381 24.479 41.2901 24.6003 41.2901 24.739C41.2901 24.921 41.2034 25.0857 41.0301 25.233C40.7788 25.4843 40.4451 25.6967 40.0291 25.87C39.6131 26.0433 39.1884 26.13 38.7551 26.13C38.0531 26.13 37.4334 25.9827 36.8961 25.688C36.3674 25.3933 35.9558 24.9817 35.6611 24.453C35.3751 23.9243 35.2321 23.3263 35.2321 22.659C35.2321 21.931 35.3794 21.294 35.6741 20.748C35.9774 20.1933 36.3718 19.7687 36.8571 19.474C37.3511 19.1793 37.8798 19.032 38.4431 19.032C38.9978 19.032 39.5178 19.175 40.0031 19.461C40.4884 19.747 40.8784 20.1413 41.1731 20.644C41.4678 21.1467 41.6194 21.71 41.6281 22.334ZM38.4431 20.176C37.9578 20.176 37.5374 20.3147 37.1821 20.592C36.8268 20.8607 36.5928 21.281 36.4801 21.853H40.3151V21.749C40.2718 21.2897 40.0638 20.9127 39.6911 20.618C39.3271 20.3233 38.9111 20.176 38.4431 20.176ZM49.0422 22.334C49.0335 22.49 48.9685 22.6243 48.8472 22.737C48.7258 22.841 48.5828 22.893 48.4182 22.893H43.8422C43.9028 23.5257 44.1412 24.0327 44.5572 24.414C44.9818 24.7953 45.4975 24.986 46.1042 24.986C46.5202 24.986 46.8582 24.9253 47.1182 24.804C47.3782 24.6827 47.6078 24.5267 47.8072 24.336C47.9372 24.258 48.0628 24.219 48.1842 24.219C48.3315 24.219 48.4528 24.271 48.5482 24.375C48.6522 24.479 48.7042 24.6003 48.7042 24.739C48.7042 24.921 48.6175 25.0857 48.4442 25.233C48.1928 25.4843 47.8592 25.6967 47.4432 25.87C47.0272 26.0433 46.6025 26.13 46.1692 26.13C45.4672 26.13 44.8475 25.9827 44.3102 25.688C43.7815 25.3933 43.3698 24.9817 43.0752 24.453C42.7892 23.9243 42.6462 23.3263 42.6462 22.659C42.6462 21.931 42.7935 21.294 43.0882 20.748C43.3915 20.1933 43.7858 19.7687 44.2712 19.474C44.7652 19.1793 45.2938 19.032 45.8572 19.032C46.4118 19.032 46.9318 19.175 47.4172 19.461C47.9025 19.747 48.2925 20.1413 48.5872 20.644C48.8818 21.1467 49.0335 21.71 49.0422 22.334ZM45.8572 20.176C45.3718 20.176 44.9515 20.3147 44.5962 20.592C44.2408 20.8607 44.0068 21.281 43.8942 21.853H47.7292V21.749C47.6858 21.2897 47.4778 20.9127 47.1052 20.618C46.7412 20.3233 46.3252 20.176 45.8572 20.176ZM56.9937 17.498C56.7077 17.498 56.4954 17.5847 56.3567 17.758C56.2267 17.9313 56.1617 18.1437 56.1617 18.395V19.305H57.4487C57.622 19.305 57.7607 19.3613 57.8647 19.474C57.9774 19.578 58.0337 19.7123 58.0337 19.877C58.0337 20.0417 57.9774 20.176 57.8647 20.28C57.7607 20.384 57.622 20.436 57.4487 20.436H56.1617V25.376C56.1617 25.5493 56.101 25.6967 55.9797 25.818C55.867 25.9393 55.7197 26 55.5377 26C55.3644 26 55.217 25.9393 55.0957 25.818C54.983 25.6967 54.9267 25.5493 54.9267 25.376V20.436H54.1207C53.956 20.436 53.8174 20.384 53.7047 20.28C53.592 20.176 53.5357 20.0417 53.5357 19.877C53.5357 19.7123 53.592 19.578 53.7047 19.474C53.8174 19.3613 53.956 19.305 54.1207 19.305H54.9267V18.395C54.9267 17.7883 55.1217 17.3073 55.5117 16.952C55.9017 16.588 56.452 16.406 57.1627 16.406C57.4574 16.406 57.7174 16.4623 57.9427 16.575C58.168 16.679 58.2807 16.8393 58.2807 17.056C58.2807 17.2207 58.2287 17.3593 58.1247 17.472C58.0294 17.576 57.9124 17.628 57.7737 17.628C57.739 17.628 57.6437 17.6107 57.4877 17.576C57.297 17.524 57.1324 17.498 56.9937 17.498ZM65.1271 22.334C65.1185 22.49 65.0535 22.6243 64.9321 22.737C64.8108 22.841 64.6678 22.893 64.5031 22.893H59.9271C59.9878 23.5257 60.2261 24.0327 60.6421 24.414C61.0668 24.7953 61.5825 24.986 62.1891 24.986C62.6051 24.986 62.9431 24.9253 63.2031 24.804C63.4631 24.6827 63.6928 24.5267 63.8921 24.336C64.0221 24.258 64.1478 24.219 64.2691 24.219C64.4165 24.219 64.5378 24.271 64.6331 24.375C64.7371 24.479 64.7891 24.6003 64.7891 24.739C64.7891 24.921 64.7025 25.0857 64.5291 25.233C64.2778 25.4843 63.9441 25.6967 63.5281 25.87C63.1121 26.0433 62.6875 26.13 62.2541 26.13C61.5521 26.13 60.9325 25.9827 60.3951 25.688C59.8665 25.3933 59.4548 24.9817 59.1601 24.453C58.8741 23.9243 58.7311 23.3263 58.7311 22.659C58.7311 21.931 58.8785 21.294 59.1731 20.748C59.4765 20.1933 59.8708 19.7687 60.3561 19.474C60.8501 19.1793 61.3788 19.032 61.9421 19.032C62.4968 19.032 63.0168 19.175 63.5021 19.461C63.9875 19.747 64.3775 20.1413 64.6721 20.644C64.9668 21.1467 65.1185 21.71 65.1271 22.334ZM61.9421 20.176C61.4568 20.176 61.0365 20.3147 60.6811 20.592C60.3258 20.8607 60.0918 21.281 59.9791 21.853H63.8141V21.749C63.7708 21.2897 63.5628 20.9127 63.1901 20.618C62.8261 20.3233 62.4101 20.176 61.9421 20.176ZM72.137 19.097C72.319 19.097 72.4663 19.1577 72.579 19.279C72.7003 19.3917 72.761 19.5433 72.761 19.734V25.376C72.761 25.5493 72.7003 25.6967 72.579 25.818C72.4663 25.9393 72.319 26 72.137 26C71.955 26 71.8076 25.9437 71.695 25.831C71.5823 25.7097 71.526 25.558 71.526 25.376V25.038C71.3006 25.3413 70.993 25.6013 70.603 25.818C70.213 26.026 69.7926 26.13 69.342 26.13C68.7526 26.13 68.2153 25.9783 67.73 25.675C67.2533 25.3717 66.8763 24.9513 66.599 24.414C66.3303 23.868 66.196 23.257 66.196 22.581C66.196 21.905 66.3303 21.2983 66.599 20.761C66.8763 20.215 67.2533 19.7903 67.73 19.487C68.2066 19.1837 68.731 19.032 69.303 19.032C69.7623 19.032 70.187 19.1273 70.577 19.318C70.9756 19.5087 71.292 19.7513 71.526 20.046V19.734C71.526 19.552 71.5823 19.4003 71.695 19.279C71.8076 19.1577 71.955 19.097 72.137 19.097ZM69.485 24.986C69.8923 24.986 70.252 24.882 70.564 24.674C70.8846 24.466 71.1316 24.18 71.305 23.816C71.487 23.452 71.578 23.0403 71.578 22.581C71.578 22.1303 71.487 21.723 71.305 21.359C71.1316 20.995 70.8846 20.709 70.564 20.501C70.252 20.2843 69.8923 20.176 69.485 20.176C69.0776 20.176 68.7136 20.28 68.393 20.488C68.081 20.696 67.834 20.982 67.652 21.346C67.4786 21.71 67.392 22.1217 67.392 22.581C67.392 23.0403 67.4786 23.452 67.652 23.816C67.834 24.18 68.081 24.466 68.393 24.674C68.7136 24.882 69.0776 24.986 69.485 24.986ZM76.4433 20.397V24.271C76.4433 24.7043 76.6383 24.921 77.0283 24.921C77.089 24.921 77.1713 24.908 77.2753 24.882C77.3793 24.8473 77.4616 24.83 77.5223 24.83C77.635 24.83 77.7303 24.8777 77.8083 24.973C77.8863 25.0683 77.9253 25.1897 77.9253 25.337C77.9253 25.519 77.8213 25.675 77.6133 25.805C77.4053 25.935 77.1713 26 76.9113 26C76.6253 26 76.361 25.9697 76.1183 25.909C75.8843 25.8483 75.672 25.6967 75.4813 25.454C75.2993 25.2027 75.2083 24.8257 75.2083 24.323V20.397H74.4543C74.2896 20.397 74.151 20.345 74.0383 20.241C73.9343 20.1283 73.8823 19.9897 73.8823 19.825C73.8823 19.6603 73.9343 19.526 74.0383 19.422C74.151 19.318 74.2896 19.266 74.4543 19.266H75.2083V18.174C75.2083 18.0007 75.2646 17.8533 75.3773 17.732C75.4986 17.6107 75.6503 17.55 75.8323 17.55C76.0056 17.55 76.1486 17.6107 76.2613 17.732C76.3826 17.8533 76.4433 18.0007 76.4433 18.174V19.266H77.5223C77.687 19.266 77.8213 19.3223 77.9253 19.435C78.038 19.539 78.0943 19.6733 78.0943 19.838C78.0943 20.0027 78.038 20.137 77.9253 20.241C77.8213 20.345 77.687 20.397 77.5223 20.397H76.4433ZM84.6058 19.188C84.7878 19.188 84.9351 19.2487 85.0478 19.37C85.1691 19.4913 85.2298 19.6387 85.2298 19.812V23.27C85.2298 24.1713 84.9785 24.8733 84.4758 25.376C83.9818 25.87 83.2798 26.117 82.3698 26.117C81.4685 26.117 80.7708 25.87 80.2768 25.376C79.7828 24.8733 79.5358 24.1713 79.5358 23.27V19.812C79.5358 19.6387 79.5921 19.4913 79.7048 19.37C79.8261 19.2487 79.9735 19.188 80.1468 19.188C80.3288 19.188 80.4761 19.2487 80.5888 19.37C80.7101 19.4913 80.7708 19.6387 80.7708 19.812V23.27C80.7708 24.4053 81.3038 24.973 82.3698 24.973C82.8985 24.973 83.3015 24.83 83.5788 24.544C83.8561 24.258 83.9948 23.8333 83.9948 23.27V19.812C83.9948 19.6387 84.0511 19.4913 84.1638 19.37C84.2851 19.2487 84.4325 19.188 84.6058 19.188ZM90.4698 19.032C90.6951 19.032 90.8901 19.0927 91.0548 19.214C91.2195 19.3267 91.3018 19.4697 91.3018 19.643C91.3018 19.851 91.2455 20.0113 91.1328 20.124C91.0288 20.228 90.8988 20.28 90.7428 20.28C90.6648 20.28 90.5478 20.254 90.3918 20.202C90.2098 20.1413 90.0668 20.111 89.9628 20.111C89.6941 20.111 89.4298 20.2063 89.1698 20.397C88.9185 20.579 88.7105 20.8347 88.5458 21.164C88.3898 21.4847 88.3118 21.8443 88.3118 22.243V25.376C88.3118 25.5493 88.2511 25.6967 88.1298 25.818C88.0171 25.9393 87.8698 26 87.6878 26C87.5058 26 87.3585 25.9437 87.2458 25.831C87.1331 25.7097 87.0768 25.558 87.0768 25.376V19.812C87.0768 19.6387 87.1331 19.4913 87.2458 19.37C87.3671 19.2487 87.5145 19.188 87.6878 19.188C87.8698 19.188 88.0171 19.2487 88.1298 19.37C88.2511 19.4913 88.3118 19.6387 88.3118 19.812V20.475C88.5025 20.0503 88.7885 19.708 89.1698 19.448C89.5511 19.1793 89.9845 19.0407 90.4698 19.032ZM98.1349 22.334C98.1263 22.49 98.0613 22.6243 97.9399 22.737C97.8186 22.841 97.6756 22.893 97.5109 22.893H92.9349C92.9956 23.5257 93.2339 24.0327 93.6499 24.414C94.0746 24.7953 94.5903 24.986 95.1969 24.986C95.6129 24.986 95.9509 24.9253 96.2109 24.804C96.4709 24.6827 96.7006 24.5267 96.8999 24.336C97.0299 24.258 97.1556 24.219 97.2769 24.219C97.4243 24.219 97.5456 24.271 97.6409 24.375C97.7449 24.479 97.7969 24.6003 97.7969 24.739C97.7969 24.921 97.7103 25.0857 97.5369 25.233C97.2856 25.4843 96.9519 25.6967 96.5359 25.87C96.1199 26.0433 95.6953 26.13 95.2619 26.13C94.5599 26.13 93.9403 25.9827 93.4029 25.688C92.8743 25.3933 92.4626 24.9817 92.1679 24.453C91.8819 23.9243 91.7389 23.3263 91.7389 22.659C91.7389 21.931 91.8863 21.294 92.1809 20.748C92.4843 20.1933 92.8786 19.7687 93.3639 19.474C93.8579 19.1793 94.3866 19.032 94.9499 19.032C95.5046 19.032 96.0246 19.175 96.5099 19.461C96.9953 19.747 97.3853 20.1413 97.6799 20.644C97.9746 21.1467 98.1263 21.71 98.1349 22.334ZM94.9499 20.176C94.4646 20.176 94.0443 20.3147 93.6889 20.592C93.3336 20.8607 93.0996 21.281 92.9869 21.853H96.8219V21.749C96.7786 21.2897 96.5706 20.9127 96.1979 20.618C95.8339 20.3233 95.4179 20.176 94.9499 20.176ZM99.179 24.934C99.101 24.8127 99.062 24.6957 99.062 24.583C99.062 24.4097 99.153 24.2623 99.335 24.141C99.4217 24.0803 99.5213 24.05 99.634 24.05C99.79 24.05 99.933 24.115 100.063 24.245C100.323 24.5397 100.6 24.7607 100.895 24.908C101.198 25.0553 101.558 25.129 101.974 25.129C102.303 25.1203 102.594 25.0467 102.845 24.908C103.096 24.7607 103.222 24.5267 103.222 24.206C103.222 23.9113 103.092 23.686 102.832 23.53C102.581 23.374 102.208 23.231 101.714 23.101C101.229 22.971 100.826 22.8367 100.505 22.698C100.184 22.5507 99.9113 22.3427 99.686 22.074C99.4693 21.7967 99.361 21.437 99.361 20.995C99.361 20.605 99.4693 20.2627 99.686 19.968C99.9113 19.6733 100.206 19.4437 100.57 19.279C100.943 19.1143 101.346 19.032 101.779 19.032C102.195 19.032 102.607 19.11 103.014 19.266C103.43 19.422 103.768 19.6603 104.028 19.981C104.132 20.1023 104.184 20.228 104.184 20.358C104.184 20.4967 104.115 20.631 103.976 20.761C103.889 20.839 103.781 20.878 103.651 20.878C103.495 20.878 103.369 20.826 103.274 20.722C103.092 20.514 102.867 20.3537 102.598 20.241C102.338 20.1283 102.048 20.072 101.727 20.072C101.398 20.072 101.116 20.1413 100.882 20.28C100.657 20.41 100.544 20.6353 100.544 20.956C100.553 21.2593 100.683 21.4847 100.934 21.632C101.194 21.7793 101.588 21.9223 102.117 22.061C102.576 22.1823 102.958 22.3123 103.261 22.451C103.564 22.5897 103.82 22.7977 104.028 23.075C104.236 23.3437 104.34 23.699 104.34 24.141C104.34 24.5483 104.223 24.9037 103.989 25.207C103.755 25.5017 103.447 25.7313 103.066 25.896C102.693 26.052 102.295 26.13 101.87 26.13C101.324 26.13 100.817 26.0347 100.349 25.844C99.8897 25.6533 99.4997 25.35 99.179 24.934Z" fill="#ADB4D2"/>
</svg>
