<svg width="161" height="73" viewBox="0 0 161 73" fill="none" xmlns="http://www.w3.org/2000/svg">
<g filter="url(#filter0_d_9_436)">
<path d="M15 12C15 10.8954 15.8954 10 17 10H145.076V53H17C15.8954 53 15 52.1046 15 51V12Z" fill="#4C85FF"/>
</g>
<path d="M47.618 26.874C47.8347 26.874 48.021 26.9477 48.177 27.095C48.3417 27.2337 48.424 27.4113 48.424 27.628C48.424 27.7407 48.398 27.8577 48.346 27.979L45.135 35.493C45.057 35.6663 44.9443 35.7963 44.797 35.883C44.6583 35.961 44.5153 36 44.368 36C44.2293 35.9913 44.095 35.948 43.965 35.87C43.835 35.7833 43.7353 35.662 43.666 35.506L40.455 27.966C40.429 27.914 40.4117 27.862 40.403 27.81C40.3943 27.7493 40.39 27.693 40.39 27.641C40.39 27.3897 40.481 27.199 40.663 27.069C40.845 26.9303 41.0183 26.861 41.183 26.861C41.5123 26.861 41.7507 27.03 41.898 27.368L44.745 34.063L44.29 34.076L46.903 27.368C47.0503 27.0387 47.2887 26.874 47.618 26.874ZM51.1245 35.207C51.1245 35.4323 51.0509 35.623 50.9035 35.779C50.7562 35.9263 50.5699 36 50.3445 36C50.1192 36 49.9329 35.9263 49.7855 35.779C49.6382 35.623 49.5645 35.4323 49.5645 35.207V29.838C49.5645 29.6127 49.6382 29.4263 49.7855 29.279C49.9329 29.123 50.1192 29.045 50.3445 29.045C50.5699 29.045 50.7562 29.123 50.9035 29.279C51.0509 29.4263 51.1245 29.6127 51.1245 29.838V35.207ZM50.3315 28.2C50.0369 28.2 49.8289 28.1523 49.7075 28.057C49.5862 27.9617 49.5255 27.7927 49.5255 27.55V27.303C49.5255 27.0517 49.5905 26.8827 49.7205 26.796C49.8592 26.7007 50.0672 26.653 50.3445 26.653C50.6479 26.653 50.8602 26.7007 50.9815 26.796C51.1029 26.8913 51.1635 27.0603 51.1635 27.303V27.55C51.1635 27.8013 51.0985 27.9747 50.9685 28.07C50.8385 28.1567 50.6262 28.2 50.3315 28.2ZM56.0038 36.13C55.2671 36.13 54.6258 35.9783 54.0798 35.675C53.5425 35.363 53.1265 34.9427 52.8318 34.414C52.5458 33.8853 52.4028 33.2873 52.4028 32.62C52.4028 31.84 52.5588 31.177 52.8708 30.631C53.1915 30.0763 53.6075 29.6517 54.1188 29.357C54.6301 29.0623 55.1718 28.915 55.7438 28.915C56.1858 28.915 56.6018 29.006 56.9918 29.188C57.3905 29.37 57.7415 29.6213 58.0448 29.942C58.3481 30.254 58.5865 30.618 58.7598 31.034C58.9418 31.45 59.0328 31.892 59.0328 32.36C59.0241 32.568 58.9418 32.737 58.7858 32.867C58.6298 32.997 58.4478 33.062 58.2398 33.062H53.2738L52.8838 31.762H57.6548L57.3688 32.022V31.671C57.3515 31.4197 57.2605 31.1943 57.0958 30.995C56.9398 30.7957 56.7405 30.6397 56.4978 30.527C56.2638 30.4057 56.0125 30.345 55.7438 30.345C55.4838 30.345 55.2411 30.3797 55.0158 30.449C54.7905 30.5183 54.5955 30.6353 54.4308 30.8C54.2661 30.9647 54.1361 31.1857 54.0408 31.463C53.9455 31.7403 53.8978 32.0913 53.8978 32.516C53.8978 32.984 53.9931 33.3827 54.1838 33.712C54.3831 34.0327 54.6345 34.2797 54.9378 34.453C55.2498 34.6177 55.5791 34.7 55.9258 34.7C56.2465 34.7 56.5021 34.674 56.6928 34.622C56.8835 34.57 57.0351 34.5093 57.1478 34.44C57.2691 34.362 57.3775 34.297 57.4728 34.245C57.6288 34.167 57.7761 34.128 57.9148 34.128C58.1055 34.128 58.2615 34.193 58.3828 34.323C58.5128 34.453 58.5778 34.6047 58.5778 34.778C58.5778 35.012 58.4565 35.2243 58.2138 35.415C57.9885 35.6057 57.6721 35.7747 57.2648 35.922C56.8575 36.0607 56.4371 36.13 56.0038 36.13ZM68.4038 29.045C68.6031 29.045 68.7764 29.123 68.9238 29.279C69.0711 29.4263 69.1448 29.617 69.1448 29.851C69.1448 29.9117 69.1404 29.968 69.1318 30.02C69.1231 30.0633 69.1101 30.1067 69.0928 30.15L67.1038 35.506C67.0431 35.6793 66.9348 35.8137 66.7788 35.909C66.6228 35.9957 66.4581 36.026 66.2848 36C65.9901 35.9827 65.7691 35.818 65.6218 35.506L64.3348 31.801L64.6728 31.814L63.4638 35.506C63.3164 35.818 63.0954 35.9827 62.8008 36C62.6361 36.026 62.4714 35.9957 62.3068 35.909C62.1508 35.8137 62.0424 35.6793 61.9818 35.506L59.9928 30.15C59.9581 30.0547 59.9408 29.955 59.9408 29.851C59.9408 29.643 60.0101 29.4567 60.1488 29.292C60.2874 29.1273 60.4781 29.045 60.7208 29.045C60.8854 29.045 61.0328 29.084 61.1628 29.162C61.2928 29.24 61.3838 29.3657 61.4358 29.539L63.0088 33.803L62.6838 33.777L63.8668 30.566C64.0054 30.2453 64.2438 30.085 64.5818 30.085C64.7724 30.085 64.9154 30.1283 65.0108 30.215C65.1148 30.293 65.1971 30.41 65.2578 30.566L66.4408 33.777L66.0508 33.829L67.6498 29.539C67.7538 29.2097 68.0051 29.045 68.4038 29.045ZM74.3299 29.045C74.4945 29.045 74.6462 29.0883 74.7849 29.175C74.9235 29.253 75.0275 29.3743 75.0969 29.539L77.0079 33.907L76.7219 34.037L78.6719 29.552C78.8192 29.2053 79.0489 29.0407 79.3609 29.058C79.5775 29.058 79.7509 29.1273 79.8809 29.266C80.0195 29.396 80.0889 29.5607 80.0889 29.76C80.0889 29.8207 80.0759 29.8857 80.0499 29.955C80.0325 30.0243 80.0109 30.0893 79.9849 30.15L77.5539 35.506C77.4152 35.818 77.1942 35.9827 76.8909 36C76.7262 36.026 76.5659 35.9957 76.4099 35.909C76.2625 35.8223 76.1499 35.688 76.0719 35.506L73.6539 30.15C73.6365 30.1067 73.6149 30.0503 73.5889 29.981C73.5715 29.9117 73.5629 29.8293 73.5629 29.734C73.5629 29.578 73.6322 29.4263 73.7709 29.279C73.9095 29.123 74.0959 29.045 74.3299 29.045ZM82.7867 35.207C82.7867 35.4323 82.713 35.623 82.5657 35.779C82.4183 35.9263 82.232 36 82.0067 36C81.7813 36 81.595 35.9263 81.4477 35.779C81.3003 35.623 81.2267 35.4323 81.2267 35.207V29.838C81.2267 29.6127 81.3003 29.4263 81.4477 29.279C81.595 29.123 81.7813 29.045 82.0067 29.045C82.232 29.045 82.4183 29.123 82.5657 29.279C82.713 29.4263 82.7867 29.6127 82.7867 29.838V35.207ZM81.9937 28.2C81.699 28.2 81.491 28.1523 81.3697 28.057C81.2483 27.9617 81.1877 27.7927 81.1877 27.55V27.303C81.1877 27.0517 81.2527 26.8827 81.3827 26.796C81.5213 26.7007 81.7293 26.653 82.0067 26.653C82.31 26.653 82.5223 26.7007 82.6437 26.796C82.765 26.8913 82.8257 27.0603 82.8257 27.303V27.55C82.8257 27.8013 82.7607 27.9747 82.6307 28.07C82.5007 28.1567 82.2883 28.2 81.9937 28.2ZM90.0839 26.38C90.3093 26.38 90.4956 26.4537 90.6429 26.601C90.7903 26.7483 90.8639 26.939 90.8639 27.173V35.207C90.8639 35.4323 90.7903 35.623 90.6429 35.779C90.4956 35.9263 90.3093 36 90.0839 36C89.8586 36 89.6723 35.9263 89.5249 35.779C89.3776 35.623 89.3039 35.4323 89.3039 35.207V34.57L89.5899 34.687C89.5899 34.7997 89.5293 34.9383 89.4079 35.103C89.2866 35.259 89.1219 35.415 88.9139 35.571C88.7059 35.727 88.4589 35.8613 88.1729 35.974C87.8956 36.078 87.5923 36.13 87.2629 36.13C86.6649 36.13 86.1233 35.9783 85.6379 35.675C85.1526 35.363 84.7669 34.9383 84.4809 34.401C84.2036 33.855 84.0649 33.231 84.0649 32.529C84.0649 31.8183 84.2036 31.1943 84.4809 30.657C84.7669 30.111 85.1483 29.6863 85.6249 29.383C86.1016 29.071 86.6303 28.915 87.2109 28.915C87.5836 28.915 87.9259 28.9713 88.2379 29.084C88.5499 29.1967 88.8186 29.3397 89.0439 29.513C89.2779 29.6863 89.4556 29.864 89.5769 30.046C89.7069 30.2193 89.7719 30.3667 89.7719 30.488L89.3039 30.657V27.173C89.3039 26.9477 89.3776 26.7613 89.5249 26.614C89.6723 26.458 89.8586 26.38 90.0839 26.38ZM87.4579 34.7C87.8393 34.7 88.1729 34.6047 88.4589 34.414C88.7449 34.2233 88.9659 33.9633 89.1219 33.634C89.2866 33.3047 89.3689 32.9363 89.3689 32.529C89.3689 32.113 89.2866 31.7403 89.1219 31.411C88.9659 31.0817 88.7449 30.8217 88.4589 30.631C88.1729 30.4403 87.8393 30.345 87.4579 30.345C87.0853 30.345 86.7559 30.4403 86.4699 30.631C86.1839 30.8217 85.9586 31.0817 85.7939 31.411C85.6379 31.7403 85.5599 32.113 85.5599 32.529C85.5599 32.9363 85.6379 33.3047 85.7939 33.634C85.9586 33.9633 86.1839 34.2233 86.4699 34.414C86.7559 34.6047 87.0853 34.7 87.4579 34.7ZM95.829 36.13C95.0923 36.13 94.451 35.9783 93.905 35.675C93.3677 35.363 92.9517 34.9427 92.657 34.414C92.371 33.8853 92.228 33.2873 92.228 32.62C92.228 31.84 92.384 31.177 92.696 30.631C93.0167 30.0763 93.4327 29.6517 93.944 29.357C94.4553 29.0623 94.997 28.915 95.569 28.915C96.011 28.915 96.427 29.006 96.817 29.188C97.2157 29.37 97.5667 29.6213 97.87 29.942C98.1733 30.254 98.4117 30.618 98.585 31.034C98.767 31.45 98.858 31.892 98.858 32.36C98.8493 32.568 98.767 32.737 98.611 32.867C98.455 32.997 98.273 33.062 98.065 33.062H93.099L92.709 31.762H97.48L97.194 32.022V31.671C97.1767 31.4197 97.0857 31.1943 96.921 30.995C96.765 30.7957 96.5657 30.6397 96.323 30.527C96.089 30.4057 95.8377 30.345 95.569 30.345C95.309 30.345 95.0663 30.3797 94.841 30.449C94.6157 30.5183 94.4207 30.6353 94.256 30.8C94.0913 30.9647 93.9613 31.1857 93.866 31.463C93.7707 31.7403 93.723 32.0913 93.723 32.516C93.723 32.984 93.8183 33.3827 94.009 33.712C94.2083 34.0327 94.4597 34.2797 94.763 34.453C95.075 34.6177 95.4043 34.7 95.751 34.7C96.0717 34.7 96.3273 34.674 96.518 34.622C96.7087 34.57 96.8603 34.5093 96.973 34.44C97.0943 34.362 97.2027 34.297 97.298 34.245C97.454 34.167 97.6013 34.128 97.74 34.128C97.9307 34.128 98.0867 34.193 98.208 34.323C98.338 34.453 98.403 34.6047 98.403 34.778C98.403 35.012 98.2817 35.2243 98.039 35.415C97.8137 35.6057 97.4973 35.7747 97.09 35.922C96.6827 36.0607 96.2623 36.13 95.829 36.13ZM106.968 32.529C106.968 33.2397 106.808 33.868 106.487 34.414C106.175 34.9513 105.75 35.3717 105.213 35.675C104.684 35.9783 104.091 36.13 103.432 36.13C102.773 36.13 102.175 35.9783 101.638 35.675C101.109 35.3717 100.685 34.9513 100.364 34.414C100.052 33.868 99.896 33.2397 99.896 32.529C99.896 31.8183 100.052 31.1943 100.364 30.657C100.685 30.111 101.109 29.6863 101.638 29.383C102.175 29.071 102.773 28.915 103.432 28.915C104.091 28.915 104.684 29.071 105.213 29.383C105.75 29.6863 106.175 30.111 106.487 30.657C106.808 31.1943 106.968 31.8183 106.968 32.529ZM105.408 32.529C105.408 32.087 105.317 31.7057 105.135 31.385C104.962 31.0557 104.723 30.8 104.42 30.618C104.125 30.436 103.796 30.345 103.432 30.345C103.068 30.345 102.734 30.436 102.431 30.618C102.136 30.8 101.898 31.0557 101.716 31.385C101.543 31.7057 101.456 32.087 101.456 32.529C101.456 32.9623 101.543 33.3437 101.716 33.673C101.898 33.9937 102.136 34.245 102.431 34.427C102.734 34.609 103.068 34.7 103.432 34.7C103.796 34.7 104.125 34.609 104.42 34.427C104.723 34.245 104.962 33.9937 105.135 33.673C105.317 33.3437 105.408 32.9623 105.408 32.529Z" fill="white"/>
<path d="M120 30.7335C120.667 31.1184 120.667 32.0807 120 32.4656L115.5 35.0637C114.833 35.4486 114 34.9674 114 34.1976V29.0015C114 28.2317 114.833 27.7506 115.5 28.1355L120 30.7335Z" fill="white"/>
<defs>
<filter id="filter0_d_9_436" x="0" y="0" width="160.075" height="73" filterUnits="userSpaceOnUse" color-interpolation-filters="sRGB">
<feFlood flood-opacity="0" result="BackgroundImageFix"/>
<feColorMatrix in="SourceAlpha" type="matrix" values="0 0 0 0 0 0 0 0 0 0 0 0 0 0 0 0 0 0 127 0" result="hardAlpha"/>
<feOffset dy="5"/>
<feGaussianBlur stdDeviation="7.5"/>
<feColorMatrix type="matrix" values="0 0 0 0 0.737991 0 0 0 0 0.779913 0 0 0 0 1 0 0 0 0.75 0"/>
<feBlend mode="normal" in2="BackgroundImageFix" result="effect1_dropShadow_9_436"/>
<feBlend mode="normal" in="SourceGraphic" in2="effect1_dropShadow_9_436" result="shape"/>
</filter>
</defs>
</svg>
